<svg width="21" height="22" viewBox="0 0 21 22" fill="none" xmlns="http://www.w3.org/2000/svg">
<path d="M16.625 1.83333H15.75V0.916667C15.75 0.410667 15.3589 0 14.875 0C14.3911 0 14 0.410667 14 0.916667V1.83333H7V0.916667C7 0.410667 6.60888 0 6.125 0C5.64113 0 5.25 0.410667 5.25 0.916667V1.83333H4.375C1.96263 1.83333 0 3.88942 0 6.41667V17.4167C0 19.9439 1.96263 22 4.375 22H16.625C19.0374 22 21 19.9439 21 17.4167V6.41667C21 3.88942 19.0374 1.83333 16.625 1.83333ZM4.375 3.66667H16.625C18.0723 3.66667 19.25 4.9005 19.25 6.41667V7.33333H1.75V6.41667C1.75 4.9005 2.92775 3.66667 4.375 3.66667ZM16.625 20.1667H4.375C2.92775 20.1667 1.75 18.9328 1.75 17.4167V9.16667H19.25V17.4167C19.25 18.9328 18.0723 20.1667 16.625 20.1667ZM15.603 12.056C15.939 12.4199 15.9285 13.0011 15.5811 13.3522L11.4336 17.5395C10.9498 18.0464 10.29 18.3333 9.58913 18.3333C8.88825 18.3333 8.2285 18.0473 7.73325 17.5276L5.76275 15.6099C5.40925 15.2653 5.38825 14.685 5.71725 14.3147C6.048 13.9434 6.601 13.9233 6.95363 14.267L8.94688 16.2076C9.32575 16.6017 9.877 16.5761 10.206 16.2314L14.3658 12.0312C14.714 11.6802 15.267 11.6912 15.603 12.0551V12.056Z" fill="#EE268F"/>
</svg>
