<svg width="41" height="40" viewBox="0 0 41 40" fill="none" xmlns="http://www.w3.org/2000/svg">
<g clip-path="url(#clip0_12_2)">
<path d="M32.4583 3.33333H30.75V1.66667C30.75 1.22464 30.57 0.800716 30.2496 0.488155C29.9293 0.175595 29.4947 0 29.0417 0C28.5886 0 28.1541 0.175595 27.8337 0.488155C27.5133 0.800716 27.3333 1.22464 27.3333 1.66667V3.33333H13.6667V1.66667C13.6667 1.22464 13.4867 0.800716 13.1663 0.488155C12.8459 0.175595 12.4114 0 11.9583 0C11.5053 0 11.0707 0.175595 10.7504 0.488155C10.43 0.800716 10.25 1.22464 10.25 1.66667V3.33333H8.54167C6.27711 3.33598 4.10608 4.2148 2.50479 5.77703C0.903507 7.33926 0.00271259 9.45734 0 11.6667V31.6667C0.00271259 33.876 0.903507 35.9941 2.50479 37.5563C4.10608 39.1185 6.27711 39.9974 8.54167 40H32.4583C34.7229 39.9974 36.8939 39.1185 38.4952 37.5563C40.0965 35.9941 40.9973 33.876 41 31.6667V11.6667C40.9973 9.45734 40.0965 7.33926 38.4952 5.77703C36.8939 4.2148 34.7229 3.33598 32.4583 3.33333ZM3.41667 11.6667C3.41667 10.3406 3.95662 9.06881 4.91774 8.13113C5.87887 7.19345 7.18243 6.66667 8.54167 6.66667H32.4583C33.8176 6.66667 35.1211 7.19345 36.0823 8.13113C37.0434 9.06881 37.5833 10.3406 37.5833 11.6667V13.3333H3.41667V11.6667ZM32.4583 36.6667H8.54167C7.18243 36.6667 5.87887 36.1399 4.91774 35.2022C3.95662 34.2645 3.41667 32.9927 3.41667 31.6667V16.6667H37.5833V31.6667C37.5833 32.9927 37.0434 34.2645 36.0823 35.2022C35.1211 36.1399 33.8176 36.6667 32.4583 36.6667Z" fill="#F60C87"/>
<path d="M20.5 27.5C21.9152 27.5 23.0625 26.3807 23.0625 25C23.0625 23.6193 21.9152 22.5 20.5 22.5C19.0848 22.5 17.9375 23.6193 17.9375 25C17.9375 26.3807 19.0848 27.5 20.5 27.5Z" fill="#F60C87"/>
<path d="M11.9583 27.5C13.3736 27.5 14.5208 26.3807 14.5208 25C14.5208 23.6193 13.3736 22.5 11.9583 22.5C10.5431 22.5 9.39583 23.6193 9.39583 25C9.39583 26.3807 10.5431 27.5 11.9583 27.5Z" fill="#F60C87"/>
<path d="M29.0417 27.5C30.4569 27.5 31.6042 26.3807 31.6042 25C31.6042 23.6193 30.4569 22.5 29.0417 22.5C27.6264 22.5 26.4792 23.6193 26.4792 25C26.4792 26.3807 27.6264 27.5 29.0417 27.5Z" fill="#F60C87"/>
</g>
<defs>
<clipPath id="clip0_12_2">
<rect width="41" height="40" fill="white"/>
</clipPath>
</defs>
</svg>
