<svg width="15" height="15" viewBox="0 0 15 15" fill="none" xmlns="http://www.w3.org/2000/svg">
<path d="M15 15H7.5C6.01664 15 4.56659 14.5601 3.33323 13.736C2.09986 12.9119 1.13856 11.7406 0.570907 10.3701C0.00324963 8.99968 -0.145275 7.49168 0.144114 6.03682C0.433503 4.58197 1.14781 3.2456 2.1967 2.1967C3.2456 1.14781 4.58197 0.433503 6.03682 0.144114C7.49168 -0.145275 8.99968 0.00324963 10.3701 0.570907C11.7406 1.13856 12.9119 2.09986 13.736 3.33323C14.5601 4.56659 15 6.01664 15 7.5V15ZM7.5 1.25C5.8424 1.25 4.25269 1.90848 3.08059 3.08059C1.90848 4.25269 1.25 5.8424 1.25 7.5C1.25 9.1576 1.90848 10.7473 3.08059 11.9194C4.25269 13.0915 5.8424 13.75 7.5 13.75H13.75V7.5C13.7482 5.84296 13.0891 4.2543 11.9174 3.08259C10.7457 1.91089 9.15705 1.25182 7.5 1.25ZM7.44313 10.2619L11.6875 6.07L10.8125 5.18L6.55875 9.3675L4.1875 7.05313L3.3125 7.94688L5.67813 10.2594C5.91241 10.4928 6.22962 10.6238 6.56031 10.6238C6.891 10.6238 7.20822 10.4928 7.4425 10.2594L7.44313 10.2619Z" fill="#6FDCCF"/>
</svg>
