<svg width="17" height="13" viewBox="0 0 17 13" fill="none" xmlns="http://www.w3.org/2000/svg">
<path d="M16.0219 4.79236C14.9752 3.12916 12.5942 0.338715 8.41521 0.338715C4.23626 0.338715 1.85524 3.12916 0.808475 4.79236C0.484882 5.30298 0.313477 5.89144 0.313477 6.49177C0.313477 7.09211 0.484882 7.68057 0.808475 8.19119C1.85524 9.85439 4.23626 12.6448 8.41521 12.6448C12.5942 12.6448 14.9752 9.85439 16.0219 8.19119C16.3455 7.68057 16.5169 7.09211 16.5169 6.49177C16.5169 5.89144 16.3455 5.30298 16.0219 4.79236ZM14.8712 7.50181C13.9723 8.92798 11.9375 11.328 8.41521 11.328C4.89294 11.328 2.85813 8.92798 1.95917 7.50181C1.76692 7.1983 1.66508 6.84856 1.66508 6.49177C1.66508 6.13499 1.76692 5.78525 1.95917 5.48174C2.85813 4.05557 4.89294 1.65558 8.41521 1.65558C11.9375 1.65558 13.9723 4.05294 14.8712 5.48174C15.0635 5.78525 15.1653 6.13499 15.1653 6.49177C15.1653 6.84856 15.0635 7.1983 14.8712 7.50181Z" fill="#121317"/>
<path d="M8.41514 3.19961C7.74773 3.19961 7.09531 3.39269 6.54038 3.75444C5.98545 4.11619 5.55294 4.63035 5.29753 5.23192C5.04212 5.83348 4.9753 6.49543 5.1055 7.13405C5.23571 7.77266 5.5571 8.35927 6.02902 8.81969C6.50095 9.28011 7.10223 9.59366 7.75681 9.72069C8.41139 9.84771 9.08988 9.78252 9.70649 9.53334C10.3231 9.28416 10.8501 8.8622 11.2209 8.32081C11.5917 7.77941 11.7896 7.1429 11.7896 6.49178C11.7885 5.61896 11.4327 4.78219 10.8001 4.16502C10.1675 3.54784 9.30977 3.20065 8.41514 3.19961ZM8.41514 8.46708C8.01469 8.46708 7.62324 8.35123 7.29028 8.13418C6.95732 7.91713 6.69781 7.60863 6.54457 7.24769C6.39133 6.88675 6.35123 6.48958 6.42936 6.10641C6.50748 5.72324 6.70031 5.37128 6.98347 5.09503C7.26662 4.81878 7.62739 4.63065 8.02014 4.55443C8.41289 4.47821 8.81999 4.51733 9.18995 4.66684C9.55991 4.81634 9.87612 5.06952 10.0986 5.39436C10.3211 5.71919 10.4398 6.1011 10.4398 6.49178C10.4398 7.01566 10.2265 7.51808 9.8468 7.88852C9.4671 8.25896 8.95212 8.46708 8.41514 8.46708Z" fill="#121317"/>
</svg>
