<svg width="69" height="70" viewBox="0 0 69 70" fill="none" xmlns="http://www.w3.org/2000/svg">
<path d="M14.535 33.6041C13.9707 33.3785 13.3458 33.3546 12.7659 33.5365C12.186 33.7183 11.6867 34.0948 11.3523 34.6023C11.0179 35.1098 10.8689 35.7171 10.9306 36.3217C10.9923 36.9264 11.2608 37.4911 11.6907 37.9207L24.8831 51.113C25.3779 51.6077 26.0489 51.8855 26.7485 51.8855C27.4481 51.8855 28.1191 51.6077 28.6139 51.113L57.6371 22.0898C58.125 21.6233 58.4155 20.9875 58.4489 20.3133C58.4822 19.6391 58.2559 18.9778 57.8165 18.4654C57.3771 17.953 56.758 17.6285 56.0866 17.5586C55.4152 17.4888 54.7426 17.6789 54.2071 18.0899L26.3739 38.3402L14.535 33.6041Z" fill="#F60C87"/>
<path d="M67.905 26.1462C67.8184 25.8104 67.6665 25.495 67.458 25.218C67.2495 24.9409 66.9884 24.7077 66.6898 24.5315C66.3911 24.3554 66.0607 24.2397 65.7173 24.1913C65.374 24.1428 65.0245 24.1625 64.6887 24.2491C64.353 24.3357 64.0376 24.4876 63.7605 24.6961C63.4835 24.9047 63.2502 25.1657 63.0741 25.4644C62.8979 25.763 62.7823 26.0934 62.7339 26.4368C62.6854 26.7801 62.705 27.1297 62.7917 27.4654C64.4989 34.0751 63.8215 41.0751 60.8786 47.2348C57.9358 53.3946 52.9158 58.3199 46.7012 61.1449C40.4865 63.9699 33.4749 64.5139 26.8989 62.6812C20.3228 60.8484 14.6033 56.7563 10.7456 51.1242C6.88797 45.492 5.13909 38.6803 5.80642 31.8863C6.47374 25.0924 9.51456 18.7511 14.3944 13.9771C19.2742 9.2032 25.6806 6.30215 32.4875 5.78395C39.2945 5.26575 46.0662 7.16357 51.6125 11.1438C51.894 11.3461 52.2126 11.4911 52.5501 11.5703C52.8877 11.6495 53.2375 11.6614 53.5796 11.6055C53.9218 11.5495 54.2496 11.4267 54.5442 11.244C54.8389 11.0613 55.0947 10.8224 55.2971 10.5409C55.4994 10.2594 55.6444 9.94076 55.7236 9.60323C55.8028 9.2657 55.8147 8.91588 55.7588 8.57373C55.7028 8.23158 55.5799 7.9038 55.3973 7.60912C55.2146 7.31444 54.9757 7.05862 54.6942 6.85627C48.4433 2.36636 40.8639 0.109198 33.1751 0.447774C25.4862 0.78635 18.1346 3.70099 12.3025 8.72297C6.47047 13.745 2.49684 20.5824 1.02067 28.1359C-0.455508 35.6893 0.651558 43.5197 4.16384 50.3679C7.67611 57.216 13.3895 62.684 20.3852 65.8924C27.3809 69.1008 35.2523 69.8632 42.7337 68.057C50.2151 66.2508 56.8716 61.9809 61.6328 55.9341C66.3941 49.8873 68.9833 42.4149 68.9842 34.7186C68.9855 31.8271 68.6229 28.947 67.905 26.1462Z" fill="#F60C87"/>
</svg>
