<svg width="120" height="111" viewBox="0 0 120 111" fill="none" xmlns="http://www.w3.org/2000/svg">
<path fill-rule="evenodd" clip-rule="evenodd" d="M65.1726 22.4445C60.9422 22.4445 56.7533 23.275 52.8449 24.8886C48.9365 26.5022 45.3853 28.8672 42.394 31.8487C39.4025 34.8302 37.0297 38.3698 35.4108 42.2652C33.7919 46.1608 32.9587 50.3361 32.9587 54.5525C32.9587 58.769 33.7919 62.9441 35.4108 66.8397C37.0297 70.7352 39.4025 74.2747 42.394 77.2562C45.3853 80.2377 48.9365 82.6029 52.8449 84.2163C56.7533 85.83 60.9422 86.6604 65.1726 86.6604C69.403 86.6604 73.592 85.83 77.5004 84.2163C81.4088 82.6029 84.9601 80.2377 87.9514 77.2562C90.9427 74.2747 93.3156 70.7352 94.9345 66.8397C96.5534 62.9441 97.3867 58.769 97.3867 54.5525C97.3872 50.6113 96.6597 46.7037 95.2407 43.0252L64.9204 73.2406L43.3339 51.7253C40.446 48.8496 40.446 44.0896 43.3339 41.2139C46.2175 38.3458 50.9684 38.3458 53.8519 41.2139H53.8624L64.9205 52.2435L86.6319 30.6036C80.7276 25.3485 73.0887 22.444 65.1729 22.4445H65.1726ZM90.6406 34.8889L64.9204 60.5195L49.713 45.362C49.0755 44.728 48.1283 44.7335 47.4881 45.362C46.8466 46.0008 46.8466 46.941 47.4881 47.5796L64.9306 64.9571L92.4729 37.5054C91.906 36.6035 91.2945 35.7302 90.6406 34.8889Z" fill="#FFDE25"/>
<path fill-rule="evenodd" clip-rule="evenodd" d="M64.2551 0.00700453C58.5975 0.0976546 52.8997 1.06882 47.3504 2.97394C25.1531 10.5946 10.2703 31.5444 10.4394 54.9436C10.4451 55.7984 10.6198 56.6437 10.9536 57.4313C11.2874 58.2187 11.7736 58.9329 12.3845 59.5329C12.9955 60.1328 13.7191 60.6069 14.5141 60.9279C15.309 61.2488 16.1597 61.4103 17.0173 61.4033C17.8743 61.3966 18.7217 61.2218 19.5109 60.8887C20.3 60.5555 21.0156 60.0708 21.6168 59.4619C22.2179 58.853 22.6927 58.1321 23.0143 57.3403C23.3359 56.5485 23.4977 55.7013 23.4907 54.8471C23.3617 36.9832 34.6527 21.0914 51.5989 15.2735C66.2434 10.2458 82.2013 13.7537 93.3266 23.9304L102.552 14.735C92.1244 5.01193 78.336 -0.218594 64.2551 0.00700453ZM106.633 18.9542L97.3763 28.1777C97.6545 28.5153 97.9305 28.8558 98.1995 29.2039C98.5797 29.696 98.9452 30.1956 99.3005 30.7L108.631 21.4005C108.599 21.3584 108.569 21.3154 108.536 21.2734C107.922 20.4785 107.284 19.7078 106.633 18.9542H106.633ZM111.997 26.3259L102.392 35.8998C109.061 49.0968 108.288 65.0484 99.8102 77.6682C89.8377 92.5119 71.5343 99.3295 54.2392 94.6416C53.4118 94.4164 52.548 94.356 51.6973 94.4639C50.8465 94.5718 50.0254 94.8457 49.2809 95.2702C48.5364 95.6946 47.8833 96.2611 47.3588 96.9375C46.8342 97.6137 46.4486 98.3865 46.2239 99.2115C45.7707 100.876 45.9991 102.651 46.8589 104.147C47.7186 105.643 49.1394 106.738 50.8088 107.19C73.4631 113.331 97.5841 104.348 110.647 84.9051C122.56 67.1725 122.895 44.2814 111.997 26.3259Z" fill="#F60C87"/>
<path fill-rule="evenodd" clip-rule="evenodd" d="M20.7631 69.1463C9.57885 69.1463 0.429688 78.3578 0.429688 89.6295C0.429688 100.901 9.57885 110.122 20.7631 110.122C31.9472 110.122 41.0964 100.901 41.0964 89.6295C41.0964 78.3578 31.9472 69.1463 20.7631 69.1463ZM20.7631 76.7065C27.8891 76.7065 33.5855 82.4477 33.5855 89.6295C33.5855 96.8113 27.8891 102.553 20.7631 102.553C13.6369 102.553 7.94036 96.8113 7.94036 89.6295C7.94036 82.4477 13.6369 76.7065 20.7631 76.7065Z" fill="#F60C87"/>
<path d="M110.608 12.6799C109.423 12.6898 108.288 13.1602 107.449 13.9952L64.922 56.3823L51.7833 43.2871C50.0214 41.5345 47.1687 41.5345 45.4068 43.2871C43.6421 45.0442 43.6421 47.895 45.4068 49.6522L64.922 69.1033L113.826 20.3605C115.59 18.6032 115.59 15.7524 113.826 13.9952C112.972 13.1461 111.814 12.6725 110.608 12.6799Z" fill="#12121F"/>
</svg>
