<svg width="112" height="19" viewBox="0 0 112 19" fill="none" xmlns="http://www.w3.org/2000/svg">
<path d="M0 14.877L6.86736 0H11.2011L18.0907 14.877H13.5125L8.13416 2.06149H9.86766L4.48935 14.877H0ZM3.75594 11.9866L4.88938 8.88366H12.4901L13.6236 11.9866H3.75594Z" fill="black"/>
<path d="M24.9914 15.0682C23.9691 15.0682 23.0949 14.8557 22.3689 14.4307C21.6429 13.9914 21.0873 13.3397 20.7021 12.4754C20.3316 11.5969 20.1465 10.4776 20.1465 9.11744C20.1465 7.74309 20.3242 6.62376 20.6798 5.75947C21.0354 4.88103 21.5688 4.2293 22.28 3.80425C23.006 3.37919 23.9098 3.16666 24.9914 3.16666C26.0878 3.16666 27.0805 3.41459 27.9695 3.91049C28.8733 4.39221 29.5844 5.0794 30.103 5.97203C30.6364 6.85048 30.9031 7.89895 30.9031 9.11744C30.9031 10.3359 30.6364 11.3915 30.103 12.2841C29.5844 13.1767 28.8733 13.8639 27.9695 14.3456C27.0805 14.8274 26.0878 15.0682 24.9914 15.0682ZM17.4128 19V3.3579H21.4355V5.31318L21.4133 9.11744L21.6355 12.9429V19H17.4128ZM24.1024 11.859C24.5765 11.859 24.9988 11.7528 25.3692 11.5403C25.7544 11.3277 26.0582 11.016 26.2804 10.6051C26.5175 10.1942 26.636 9.69835 26.636 9.11744C26.636 8.53653 26.5175 8.04063 26.2804 7.62974C26.0582 7.21885 25.7544 6.90714 25.3692 6.69461C24.9988 6.48209 24.5765 6.37584 24.1024 6.37584C23.6283 6.37584 23.1986 6.48209 22.8134 6.69461C22.443 6.90714 22.1392 7.21885 21.9022 7.62974C21.6799 8.04063 21.5688 8.53653 21.5688 9.11744C21.5688 9.69835 21.6799 10.1942 21.9022 10.6051C22.1392 11.016 22.443 11.3277 22.8134 11.5403C23.1986 11.7528 23.6283 11.859 24.1024 11.859Z" fill="black"/>
<path d="M38.715 15.0682C37.6927 15.0682 36.8186 14.8557 36.0925 14.4307C35.3666 13.9914 34.8109 13.3397 34.4257 12.4754C34.0553 11.5969 33.8701 10.4776 33.8701 9.11744C33.8701 7.74309 34.0479 6.62376 34.4035 5.75947C34.7591 4.88103 35.2925 4.2293 36.0037 3.80425C36.7297 3.37919 37.6335 3.16666 38.715 3.16666C39.8114 3.16666 40.8041 3.41459 41.6931 3.91049C42.5969 4.39221 43.3081 5.0794 43.8267 5.97203C44.3601 6.85048 44.6267 7.89895 44.6267 9.11744C44.6267 10.3359 44.3601 11.3915 43.8267 12.2841C43.3081 13.1767 42.5969 13.8639 41.6931 14.3456C40.8041 14.8274 39.8114 15.0682 38.715 15.0682ZM31.1365 19V3.3579H35.1591V5.31318L35.1369 9.11744L35.3591 12.9429V19H31.1365ZM37.826 11.859C38.3002 11.859 38.7224 11.7528 39.0928 11.5403C39.4781 11.3277 39.7818 11.016 40.004 10.6051C40.2411 10.1942 40.3596 9.69835 40.3596 9.11744C40.3596 8.53653 40.2411 8.04063 40.004 7.62974C39.7818 7.21885 39.4781 6.90714 39.0928 6.69461C38.7224 6.48209 38.3002 6.37584 37.826 6.37584C37.3519 6.37584 36.9222 6.48209 36.537 6.69461C36.1666 6.90714 35.8629 7.21885 35.6258 7.62974C35.4036 8.04063 35.2925 8.53653 35.2925 9.11744C35.2925 9.69835 35.4036 10.1942 35.6258 10.6051C35.8629 11.016 36.1666 11.3277 36.537 11.5403C36.9222 11.7528 37.3519 11.859 37.826 11.859Z" fill="black"/>
<path d="M49.8049 14.877V0H53.4275L62.0061 9.9038H60.2949V0H64.6064V14.877H60.9838L52.4052 4.97313H54.1165V14.877H49.8049Z" fill="black"/>
<path d="M73.1517 14.8769V12.7304L72.8628 12.1991V8.24608C72.8628 7.6085 72.6554 7.11968 72.2405 6.77964C71.8405 6.42542 71.1959 6.24829 70.307 6.24829C69.7291 6.24829 69.1439 6.3404 68.5512 6.52459C67.9586 6.69462 67.4548 6.93549 67.04 7.2472L65.6176 4.50557C66.2992 4.08052 67.1141 3.75464 68.0623 3.52794C69.0254 3.28708 69.981 3.16666 70.9293 3.16666C72.885 3.16666 74.3963 3.5988 75.4631 4.46308C76.5447 5.31319 77.0854 6.65212 77.0854 8.47987V14.8769H73.1517ZM69.5958 15.0682C68.6327 15.0682 67.8178 14.9124 67.1511 14.6007C66.4844 14.289 65.9732 13.8639 65.6176 13.3255C65.2768 12.7871 65.1064 12.1849 65.1064 11.519C65.1064 10.8106 65.2917 10.2013 65.6621 9.69126C66.0473 9.16703 66.6325 8.7703 67.4178 8.5011C68.2031 8.21773 69.218 8.07606 70.4626 8.07606H73.3073V10.1801H71.0404C70.3588 10.1801 69.8773 10.2863 69.5958 10.4989C69.3291 10.7114 69.1958 10.9948 69.1958 11.349C69.1958 11.7032 69.3365 11.9866 69.618 12.1991C69.8995 12.4116 70.2847 12.5179 70.7737 12.5179C71.233 12.5179 71.6479 12.4116 72.0183 12.1991C72.4035 11.9724 72.685 11.6323 72.8628 11.179L73.4406 12.6666C73.2184 13.4601 72.7813 14.0622 72.1294 14.4731C71.4923 14.8699 70.6477 15.0682 69.5958 15.0682Z" fill="black"/>
<path d="M93.7204 3.16666C94.6538 3.16666 95.4835 3.35084 96.2095 3.71922C96.9503 4.07344 97.5282 4.626 97.943 5.37693C98.3727 6.12787 98.5875 7.09842 98.5875 8.28857V14.8769H94.3649V8.94742C94.3649 8.12565 94.2019 7.53055 93.8759 7.16216C93.55 6.77962 93.1055 6.58834 92.5425 6.58834C92.1424 6.58834 91.7794 6.68045 91.4535 6.86465C91.1275 7.04883 90.8756 7.33219 90.6978 7.71475C90.52 8.08313 90.4311 8.56485 90.4311 9.15993V14.8769H86.2085V8.94742C86.2085 8.12565 86.0455 7.53055 85.7196 7.16216C85.4084 6.77962 84.9639 6.58834 84.3861 6.58834C83.9712 6.58834 83.6008 6.68045 83.2749 6.86465C82.9637 7.04883 82.7119 7.33219 82.5193 7.71475C82.3415 8.08313 82.2525 8.56485 82.2525 9.15993V14.8769H78.0299V3.3579H82.0525V6.56709L81.2525 5.65324C81.6969 4.83146 82.3044 4.21513 83.0748 3.80425C83.8453 3.37919 84.7046 3.16666 85.6529 3.16666C86.7345 3.16666 87.6827 3.43586 88.4976 3.97427C89.3273 4.4985 89.8829 5.32027 90.1645 6.43959L88.7865 6.16328C89.2162 5.22816 89.8607 4.4985 90.72 3.97427C91.5942 3.43586 92.5943 3.16666 93.7204 3.16666Z" fill="black"/>
<path d="M105.999 15.0682C104.577 15.0682 103.332 14.8132 102.266 14.3031C101.214 13.7789 100.391 13.0705 99.7988 12.1778C99.2209 11.2711 98.932 10.2438 98.932 9.09618C98.932 7.94853 99.2135 6.9284 99.7765 6.03578C100.354 5.129 101.147 4.42765 102.155 3.93175C103.162 3.42168 104.296 3.16666 105.555 3.16666C106.74 3.16666 107.822 3.40043 108.8 3.868C109.778 4.32139 110.555 4.99438 111.133 5.887C111.711 6.77963 112 7.86353 112 9.1387C112 9.28039 111.993 9.44333 111.978 9.62751C111.963 9.8117 111.948 9.98171 111.933 10.1376H102.399V8.01229H109.689L108.089 8.60737C108.103 8.08313 108 7.62974 107.777 7.2472C107.57 6.86464 107.274 6.5671 106.888 6.35458C106.518 6.14205 106.081 6.03578 105.577 6.03578C105.073 6.03578 104.629 6.14205 104.244 6.35458C103.873 6.5671 103.584 6.87173 103.377 7.26845C103.169 7.651 103.066 8.10439 103.066 8.62863V9.24494C103.066 9.81168 103.184 10.3005 103.421 10.7114C103.673 11.1223 104.029 11.4411 104.488 11.6678C104.947 11.8803 105.496 11.9866 106.133 11.9866C106.725 11.9866 107.229 11.9086 107.644 11.7528C108.074 11.5828 108.496 11.3277 108.911 10.9877L111.133 13.198C110.555 13.8072 109.844 14.2748 109 14.6007C108.155 14.9124 107.155 15.0682 105.999 15.0682H105.999Z" fill="black"/>
</svg>
