<svg width="45" height="41" viewBox="0 0 45 41" fill="none" xmlns="http://www.w3.org/2000/svg">
<path fill-rule="evenodd" clip-rule="evenodd" d="M24.3062 8.37817C22.7323 8.37817 21.1737 8.68715 19.7195 9.28752C18.2653 9.8879 16.9441 10.7678 15.8311 11.8771C14.7181 12.9865 13.8352 14.3034 13.2329 15.7528C12.6305 17.2022 12.3206 18.7557 12.3206 20.3244C12.3206 21.8933 12.6305 23.4467 13.2329 24.8961C13.8352 26.3455 14.7181 27.6624 15.8311 28.7717C16.9441 29.8811 18.2653 30.761 19.7195 31.3614C21.1737 31.9617 22.7323 32.2707 24.3062 32.2707C25.8802 32.2707 27.4388 31.9617 28.893 31.3614C30.3472 30.761 31.6685 29.8811 32.7814 28.7717C33.8944 27.6624 34.7773 26.3455 35.3796 24.8961C35.9819 23.4467 36.292 21.8933 36.292 20.3244C36.2922 18.8581 36.0215 17.4042 35.4935 16.0355L24.2124 27.2777L16.1808 19.2725C15.1063 18.2026 15.1063 16.4316 16.1808 15.3616C17.2537 14.2945 19.0213 14.2945 20.0942 15.3616H20.0981L24.2125 19.4653L32.2905 11.4139C30.0937 9.45863 27.2515 8.37797 24.3063 8.37817H24.3062ZM33.782 13.0083L24.2124 22.5446L18.5543 16.905C18.317 16.6691 17.9646 16.6711 17.7264 16.905C17.4878 17.1427 17.4878 17.4925 17.7264 17.7301L24.2162 24.1957L34.4638 13.9818C34.2528 13.6462 34.0253 13.3213 33.782 13.0083Z" fill="#FFDE25"/>
<path fill-rule="evenodd" clip-rule="evenodd" d="M23.9653 0.0299499C21.8603 0.0636777 19.7403 0.425015 17.6756 1.13385C9.41678 3.96923 3.87939 11.7639 3.9423 20.47C3.94441 20.788 4.00943 21.1025 4.13361 21.3956C4.25779 21.6885 4.4387 21.9543 4.66602 22.1775C4.89334 22.4007 5.16258 22.5771 5.45834 22.6965C5.7541 22.8159 6.07062 22.876 6.38969 22.8734C6.70856 22.8709 7.02386 22.8059 7.31748 22.6819C7.6111 22.558 7.87733 22.3776 8.10102 22.1511C8.32467 21.9245 8.50134 21.6563 8.62099 21.3617C8.74064 21.0671 8.80083 20.7519 8.79822 20.4341C8.75023 13.7875 12.9512 7.87472 19.2563 5.7101C24.7051 3.83947 30.6425 5.14464 34.7818 8.93104L38.2144 5.50972C34.3345 1.89211 29.2043 -0.0539876 23.9653 0.0299499ZM39.7325 7.07956L36.2886 10.5113C36.392 10.6369 36.4948 10.7636 36.5948 10.8931C36.7363 11.0762 36.8723 11.2621 37.0045 11.4498L40.4759 7.98973C40.464 7.97407 40.4529 7.95807 40.4409 7.94246C40.2124 7.6467 39.9748 7.35993 39.7325 7.07956H39.7325ZM41.7286 9.8223L38.1547 13.3844C40.6361 18.2946 40.3486 24.2296 37.1941 28.925C33.4837 34.4478 26.6736 36.9845 20.2387 35.2403C19.9309 35.1565 19.6095 35.134 19.293 35.1741C18.9764 35.2143 18.6709 35.3162 18.3939 35.4741C18.1169 35.632 17.8739 35.8428 17.6787 36.0945C17.4836 36.3461 17.3401 36.6336 17.2565 36.9406C17.0879 37.5597 17.1729 38.2202 17.4927 38.7769C17.8126 39.3336 18.3413 39.7408 18.9624 39.9091C27.3913 42.1938 36.3659 38.8518 41.226 31.6176C45.6585 25.02 45.7833 16.5029 41.7286 9.8223Z" fill="#F60C87"/>
<path fill-rule="evenodd" clip-rule="evenodd" d="M7.78313 25.7543C3.62186 25.7543 0.217773 29.1816 0.217773 33.3754C0.217773 37.5692 3.62186 41 7.78313 41C11.9444 41 15.3485 37.5692 15.3485 33.3754C15.3485 29.1816 11.9444 25.7543 7.78313 25.7543ZM7.78313 28.5672C10.4345 28.5672 12.5539 30.7033 12.5539 33.3754C12.5539 36.0475 10.4345 38.1836 7.78313 38.1836C5.13173 38.1836 3.01224 36.0475 3.01224 33.3754C3.01224 30.7033 5.13173 28.5672 7.78313 28.5672Z" fill="#F60C87"/>
<path d="M41.2116 4.74512C40.7705 4.74878 40.3482 4.9238 40.036 5.2345L24.2132 21.0053L19.3248 16.133C18.6692 15.4809 17.6078 15.4809 16.9523 16.133C16.2957 16.7868 16.2957 17.8475 16.9523 18.5012L24.2132 25.7383L42.4086 7.6028C43.0652 6.94897 43.0652 5.88828 42.4086 5.2345C42.0912 4.91857 41.6601 4.74236 41.2116 4.74512Z" fill="#12121F"/>
</svg>
