<svg width="40" height="40" viewBox="0 0 40 40" fill="none" xmlns="http://www.w3.org/2000/svg">
<g clip-path="url(#clip0_12_7)">
<path d="M33.3333 0H6.66667C4.89856 0 3.20286 0.702379 1.95262 1.95262C0.702379 3.20286 0 4.89856 0 6.66667V26.6667C0 28.4348 0.702379 30.1305 1.95262 31.3807C3.20286 32.631 4.89856 33.3333 6.66667 33.3333H11.5L18.9183 39.605C19.2193 39.8597 19.6008 39.9994 19.995 39.9994C20.3892 39.9994 20.7707 39.8597 21.0717 39.605L28.5 33.3333H33.3333C35.1014 33.3333 36.7971 32.631 38.0474 31.3807C39.2976 30.1305 40 28.4348 40 26.6667V6.66667C40 4.89856 39.2976 3.20286 38.0474 1.95262C36.7971 0.702379 35.1014 0 33.3333 0ZM36.6667 26.6667C36.6667 27.5507 36.3155 28.3986 35.6904 29.0237C35.0652 29.6488 34.2174 30 33.3333 30H28.5C27.7122 30.0002 26.9499 30.2795 26.3483 30.7883L20 36.15L13.655 30.7883C13.0526 30.2788 12.289 29.9995 11.5 30H6.66667C5.78261 30 4.93476 29.6488 4.30964 29.0237C3.68452 28.3986 3.33333 27.5507 3.33333 26.6667V6.66667C3.33333 5.78261 3.68452 4.93476 4.30964 4.30964C4.93476 3.68452 5.78261 3.33333 6.66667 3.33333H33.3333C34.2174 3.33333 35.0652 3.68452 35.6904 4.30964C36.3155 4.93476 36.6667 5.78261 36.6667 6.66667V26.6667Z" fill="#F60C87"/>
<path d="M28.3333 11.875H11.6667C11.2246 11.875 10.8007 12.0506 10.4882 12.3632C10.1756 12.6757 10 13.0996 10 13.5417C10 13.9837 10.1756 14.4076 10.4882 14.7202C10.8007 15.0327 11.2246 15.2083 11.6667 15.2083H28.3333C28.7754 15.2083 29.1993 15.0327 29.5118 14.7202C29.8244 14.4076 30 13.9837 30 13.5417C30 13.0996 29.8244 12.6757 29.5118 12.3632C29.1993 12.0506 28.7754 11.875 28.3333 11.875Z" fill="#F60C87"/>
<path d="M28.3333 18.5417H11.6667C11.2246 18.5417 10.8007 18.7173 10.4882 19.0298C10.1756 19.3424 10 19.7663 10 20.2083C10 20.6504 10.1756 21.0743 10.4882 21.3868C10.8007 21.6994 11.2246 21.875 11.6667 21.875H28.3333C28.7754 21.875 29.1993 21.6994 29.5118 21.3868C29.8244 21.0743 30 20.6504 30 20.2083C30 19.7663 29.8244 19.3424 29.5118 19.0298C29.1993 18.7173 28.7754 18.5417 28.3333 18.5417Z" fill="#F60C87"/>
</g>
<defs>
<clipPath id="clip0_12_7">
<rect width="40" height="40" fill="white"/>
</clipPath>
</defs>
</svg>
