<svg width="296" height="50" viewBox="0 0 296 50" fill="none" xmlns="http://www.w3.org/2000/svg">
<g clip-path="url(#clip0_6724_2977)">
<path d="M0.664062 39.1499L18.7522 0H30.167L48.3137 39.1499H36.2549L22.0889 5.42497H26.6548L12.4887 39.1499H0.664062ZM10.5569 31.5436L13.5423 23.378H33.5622L36.5476 31.5436H10.5569Z" fill="black"/>
<path d="M66.4896 39.6532C63.7969 39.6532 61.4944 39.094 59.5822 37.9754C57.67 36.8195 56.2065 35.1044 55.1919 32.83C54.2162 30.5183 53.7285 27.5727 53.7285 23.9933C53.7285 20.3766 54.1967 17.431 55.1333 15.1565C56.0699 12.8448 57.4749 11.1298 59.348 10.0112C61.2603 8.89263 63.6408 8.33333 66.4896 8.33333C69.3775 8.33333 71.9922 8.98578 74.3337 10.2908C76.7143 11.5585 78.5874 13.3669 79.9533 15.7159C81.3582 18.0276 82.0606 20.7867 82.0606 23.9933C82.0606 27.1998 81.3582 29.9776 79.9533 32.3266C78.5874 34.6756 76.7143 36.484 74.3337 37.7516C71.9922 39.0194 69.3775 39.6532 66.4896 39.6532ZM46.5283 50V8.83661H57.1236V13.9821L57.0651 23.9933L57.6504 34.0604V50H46.5283ZM64.1482 31.208C65.397 31.208 66.5092 30.9284 67.4848 30.3691C68.4995 29.8099 69.2995 28.9895 69.8849 27.9083C70.5093 26.827 70.8214 25.522 70.8214 23.9933C70.8214 22.4646 70.5093 21.1596 69.8849 20.0783C69.2995 18.997 68.4995 18.1767 67.4848 17.6174C66.5092 17.0582 65.397 16.7785 64.1482 16.7785C62.8994 16.7785 61.7676 17.0582 60.753 17.6174C59.7773 18.1767 58.9773 18.997 58.3529 20.0783C57.7675 21.1596 57.4749 22.4646 57.4749 23.9933C57.4749 25.522 57.7675 26.827 58.3529 27.9083C58.9773 28.9895 59.7773 29.8099 60.753 30.3691C61.7676 30.9284 62.8994 31.208 64.1482 31.208Z" fill="black"/>
<path d="M102.637 39.6532C99.944 39.6532 97.6415 39.094 95.7292 37.9754C93.817 36.8195 92.3535 35.1044 91.3389 32.83C90.3633 30.5183 89.8754 27.5727 89.8754 23.9933C89.8754 20.3766 90.3438 17.431 91.2804 15.1565C92.217 12.8448 93.6219 11.1298 95.4951 10.0112C97.4073 8.89263 99.7879 8.33333 102.637 8.33333C105.525 8.33333 108.139 8.98578 110.481 10.2908C112.861 11.5585 114.734 13.3669 116.1 15.7159C117.505 18.0276 118.208 20.7867 118.208 23.9933C118.208 27.1998 117.505 29.9776 116.1 32.3266C114.734 34.6756 112.861 36.484 110.481 37.7516C108.139 39.0194 105.525 39.6532 102.637 39.6532ZM82.6753 50V8.83661H93.2707V13.9821L93.2121 23.9933L93.7975 34.0604V50H82.6753ZM100.295 31.208C101.544 31.208 102.656 30.9284 103.632 30.3691C104.646 29.8099 105.446 28.9895 106.032 27.9083C106.656 26.827 106.968 25.522 106.968 23.9933C106.968 22.4646 106.656 21.1596 106.032 20.0783C105.446 18.997 104.646 18.1767 103.632 17.6174C102.656 17.0582 101.544 16.7785 100.295 16.7785C99.0464 16.7785 97.9146 17.0582 96.8999 17.6174C95.9243 18.1767 95.1243 18.997 94.4999 20.0783C93.9146 21.1596 93.6219 22.4646 93.6219 23.9933C93.6219 25.522 93.9146 26.827 94.4999 27.9083C95.1243 28.9895 95.9243 29.8099 96.8999 30.3691C97.9146 30.9284 99.0464 31.208 100.295 31.208Z" fill="black"/>
<path d="M131.847 39.1499V0H141.388L163.984 26.0626H159.476V0H170.833V39.1499H161.291L138.696 13.0872H143.203V39.1499H131.847Z" fill="black"/>
<path d="M193.341 39.1499V33.5011L192.58 32.1029V21.7002C192.58 20.0224 192.033 18.736 190.941 17.8412C189.887 16.909 188.189 16.4429 185.848 16.4429C184.326 16.4429 182.784 16.6853 181.223 17.17C179.662 17.6174 178.335 18.2513 177.243 19.0716L173.496 11.8568C175.291 10.7382 177.438 9.88066 179.935 9.28409C182.472 8.65023 184.989 8.33333 187.487 8.33333C192.638 8.33333 196.619 9.47054 199.428 11.745C202.277 13.9821 203.702 17.5056 203.702 22.3155V39.1499H193.341ZM183.975 39.6532C181.438 39.6532 179.291 39.2431 177.535 38.4228C175.779 37.6025 174.433 36.484 173.496 35.0671C172.599 33.6503 172.15 32.0656 172.15 30.3132C172.15 28.4489 172.638 26.8456 173.613 25.5033C174.628 24.1238 176.169 23.0798 178.238 22.3713C180.306 21.6256 182.979 21.2528 186.258 21.2528H193.75V26.7897H187.779C185.984 26.7897 184.716 27.0694 183.975 27.6286C183.272 28.1879 182.921 28.9336 182.921 29.8657C182.921 30.7979 183.292 31.5436 184.033 32.1029C184.775 32.6622 185.789 32.9418 187.077 32.9418C188.287 32.9418 189.38 32.6622 190.355 32.1029C191.37 31.5063 192.111 30.6114 192.58 29.4183L194.102 33.3333C193.516 35.4213 192.365 37.0059 190.648 38.0872C188.97 39.1312 186.745 39.6532 183.975 39.6532Z" fill="black"/>
<path d="M247.517 8.33333C249.976 8.33333 252.161 8.81802 254.073 9.78744C256.024 10.7196 257.546 12.1737 258.639 14.1498C259.771 16.126 260.337 18.6801 260.337 21.8121V39.1499H249.215V23.5459C249.215 21.3833 248.785 19.8173 247.927 18.8478C247.068 17.8411 245.897 17.3378 244.414 17.3378C243.361 17.3378 242.405 17.5802 241.546 18.0649C240.688 18.5496 240.024 19.2953 239.556 20.302C239.088 21.2714 238.853 22.5391 238.853 24.1051V39.1499H227.731V23.5459C227.731 21.3833 227.302 19.8173 226.443 18.8478C225.624 17.8411 224.453 17.3378 222.931 17.3378C221.838 17.3378 220.863 17.5802 220.004 18.0649C219.185 18.5496 218.521 19.2953 218.014 20.302C217.546 21.2714 217.312 22.5391 217.312 24.1051V39.1499H206.189V8.83661H216.785V17.2818L214.677 14.877C215.848 12.7144 217.448 11.0925 219.477 10.0112C221.507 8.89263 223.77 8.33333 226.268 8.33333C229.117 8.33333 231.614 9.04176 233.761 10.4586C235.946 11.8382 237.41 14.0007 238.151 16.9463L234.522 16.2192C235.653 13.7583 237.351 11.8382 239.614 10.4586C241.917 9.04176 244.551 8.33333 247.517 8.33333Z" fill="black"/>
<path d="M279.859 39.6532C276.112 39.6532 272.834 38.9821 270.025 37.6398C267.254 36.2603 265.088 34.3959 263.527 32.047C262.005 29.6607 261.244 26.9575 261.244 23.9373C261.244 20.9172 261.985 18.2326 263.468 15.8837C264.99 13.4974 267.078 11.6517 269.732 10.3467C272.386 9.00444 275.371 8.33333 278.688 8.33333C281.81 8.33333 284.659 8.94853 287.235 10.179C289.81 11.3721 291.859 13.1431 293.381 15.4921C294.903 17.8411 295.664 20.6935 295.664 24.0492C295.664 24.4221 295.645 24.8509 295.606 25.3356C295.566 25.8203 295.527 26.2677 295.488 26.6778H270.376V21.085H289.576L285.361 22.651C285.4 21.2714 285.127 20.0783 284.542 19.0716C283.996 18.0649 283.215 17.2819 282.2 16.7226C281.225 16.1633 280.074 15.8837 278.747 15.8837C277.42 15.8837 276.249 16.1633 275.234 16.7226C274.259 17.2819 273.498 18.0835 272.951 19.1275C272.405 20.1342 272.132 21.3274 272.132 22.7069V24.3288C272.132 25.8202 272.444 27.1066 273.069 28.1879C273.732 29.2692 274.669 30.1081 275.878 30.7047C277.088 31.264 278.532 31.5436 280.21 31.5436C281.771 31.5436 283.098 31.3385 284.191 30.9284C285.322 30.481 286.435 29.8098 287.527 28.915L293.381 34.7315C291.859 36.3348 289.986 37.5653 287.761 38.4228C285.537 39.2431 282.903 39.6532 279.859 39.6532H279.859Z" fill="black"/>
</g>
<defs>
<clipPath id="clip0_6724_2977">
<rect width="295" height="50" fill="white" transform="translate(0.664062)"/>
</clipPath>
</defs>
</svg>
