<svg width="39" height="34" viewBox="0 0 39 34" fill="none" xmlns="http://www.w3.org/2000/svg">
<g clip-path="url(#clip0_12_11)">
<path d="M34.125 6.66667H8.125C6.72913 6.66667 5.408 6.04667 4.49312 5.00167C5.38688 3.97833 6.68525 3.33333 8.125 3.33333H37.375C38.2736 3.33333 39 2.58667 39 1.66667C39 0.746667 38.2736 0 37.375 0H8.125C3.63838 0 0 3.73167 0 8.33333V25C0 29.6017 3.63838 33.3333 8.125 33.3333H34.125C36.8176 33.3333 39 31.095 39 28.3333V11.6667C39 8.905 36.8176 6.66667 34.125 6.66667ZM35.75 28.3333C35.75 29.2517 35.022 30 34.125 30H8.125C5.43725 30 3.25 27.7567 3.25 25V8.33C4.63775 9.395 6.344 10 8.125 10H34.125C35.022 10 35.75 10.7483 35.75 11.6667V28.3333ZM32.5 20C32.5 20.92 31.772 21.6667 30.875 21.6667C29.978 21.6667 29.25 20.92 29.25 20C29.25 19.08 29.978 18.3333 30.875 18.3333C31.772 18.3333 32.5 19.08 32.5 20Z" fill="#F60C87"/>
</g>
<defs>
<clipPath id="clip0_12_11">
<rect width="39" height="34" fill="white"/>
</clipPath>
</defs>
</svg>
