<svg width="129" height="22" viewBox="0 0 129 22" fill="none" xmlns="http://www.w3.org/2000/svg">
<g clip-path="url(#clip0_7133_1088)">
<path d="M0 17.2259L7.90972 0H12.9013L20.8366 17.2259H15.5635L9.3688 2.38699H11.3654L5.17076 17.2259H0ZM4.32603 13.8792L5.63152 10.2863H14.386L15.6915 13.8792H4.32603Z" fill="black"/>
<path d="M28.7847 17.4474C27.6072 17.4474 26.6004 17.2013 25.7641 16.7092C24.928 16.2006 24.288 15.4459 23.8443 14.4452C23.4177 13.428 23.2044 12.132 23.2044 10.557C23.2044 8.96568 23.4091 7.66961 23.8187 6.66887C24.2283 5.65172 24.8426 4.89709 25.6618 4.40492C26.498 3.91275 27.5389 3.66666 28.7847 3.66666C30.0475 3.66666 31.1909 3.95374 32.2148 4.52794C33.2558 5.08572 34.0749 5.88142 34.6722 6.91499C35.2865 7.93214 35.5937 9.14615 35.5937 10.557C35.5937 11.9679 35.2865 13.1901 34.6722 14.2237C34.0749 15.2573 33.2558 16.0529 32.2148 16.6107C31.1909 17.1685 30.0475 17.4474 28.7847 17.4474ZM20.0558 22V3.8881H24.689V6.1521L24.6635 10.557L24.9194 14.9866V22H20.0558ZM27.7608 13.7315C28.3069 13.7315 28.7933 13.6085 29.2199 13.3624C29.6636 13.1163 30.0134 12.7554 30.2694 12.2796C30.5424 11.8039 30.6789 11.2297 30.6789 10.557C30.6789 9.8844 30.5424 9.3102 30.2694 8.83444C30.0134 8.35867 29.6636 7.99774 29.2199 7.75165C28.7933 7.50558 28.3069 7.38255 27.7608 7.38255C27.2147 7.38255 26.7198 7.50558 26.2761 7.75165C25.8495 7.99774 25.4997 8.35867 25.2266 8.83444C24.9706 9.3102 24.8426 9.8844 24.8426 10.557C24.8426 11.2297 24.9706 11.8039 25.2266 12.2796C25.4997 12.7554 25.8495 13.1163 26.2761 13.3624C26.7198 13.6085 27.2147 13.7315 27.7608 13.7315Z" fill="black"/>
<path d="M44.5914 17.4474C43.4139 17.4474 42.407 17.2013 41.5708 16.7092C40.7346 16.2006 40.0947 15.4459 39.651 14.4452C39.2243 13.428 39.011 12.132 39.011 10.557C39.011 8.96568 39.2158 7.66961 39.6254 6.66887C40.035 5.65172 40.6493 4.89709 41.4684 4.40492C42.3046 3.91275 43.3456 3.66666 44.5914 3.66666C45.8542 3.66666 46.9976 3.95374 48.0215 4.52794C49.0624 5.08572 49.8816 5.88142 50.4789 6.91499C51.0932 7.93214 51.4004 9.14615 51.4004 10.557C51.4004 11.9679 51.0932 13.1901 50.4789 14.2237C49.8816 15.2573 49.0624 16.0529 48.0215 16.6107C46.9976 17.1685 45.8542 17.4474 44.5914 17.4474ZM35.8625 22V3.8881H40.4957V6.1521L40.4701 10.557L40.7261 14.9866V22H35.8625ZM43.5674 13.7315C44.1135 13.7315 44.5999 13.6085 45.0265 13.3624C45.4702 13.1163 45.8201 12.7554 46.076 12.2796C46.3491 11.8039 46.4856 11.2297 46.4856 10.557C46.4856 9.8844 46.3491 9.3102 46.076 8.83444C45.8201 8.35867 45.4702 7.99774 45.0265 7.75165C44.5999 7.50558 44.1135 7.38255 43.5674 7.38255C43.0214 7.38255 42.5265 7.50558 42.0828 7.75165C41.6561 7.99774 41.3063 8.35867 41.0333 8.83444C40.7773 9.3102 40.6493 9.8844 40.6493 10.557C40.6493 11.2297 40.7773 11.8039 41.0333 12.2796C41.3063 12.7554 41.6561 13.1163 42.0828 13.3624C42.5265 13.6085 43.0214 13.7315 43.5674 13.7315Z" fill="black"/>
<path d="M57.3646 17.2259V0H61.5371L71.4178 11.4676H69.4468V0H74.4127V17.2259H70.2403L60.3596 5.75836H62.3306V17.2259H57.3646Z" fill="black"/>
<path d="M84.2551 17.2259V14.7405L83.9224 14.1253V9.54809C83.9224 8.80984 83.6834 8.24385 83.2056 7.85011C82.7449 7.43996 82.0025 7.23486 80.9786 7.23486C80.3131 7.23486 79.639 7.34152 78.9564 7.55479C78.2738 7.75167 77.6936 8.03057 77.2157 8.39149L75.5775 5.21698C76.3625 4.72481 77.3011 4.34748 78.3932 4.08499C79.5025 3.80609 80.6032 3.66666 81.6953 3.66666C83.9479 3.66666 85.6886 4.16703 86.9173 5.16778C88.1631 6.15212 88.7859 7.70246 88.7859 9.8188V17.2259H84.2551ZM80.1595 17.4474C79.0502 17.4474 78.1116 17.267 77.3437 16.906C76.5758 16.5451 75.987 16.0529 75.5775 15.4295C75.185 14.8061 74.9887 14.1089 74.9887 13.3378C74.9887 12.5175 75.202 11.8121 75.6287 11.2215C76.0724 10.6145 76.7464 10.1551 77.6509 9.84338C78.5553 9.51527 79.7243 9.35123 81.1578 9.35123H84.4343V11.7875H81.8233C81.0383 11.7875 80.4837 11.9105 80.1595 12.1566C79.8523 12.4027 79.6987 12.7308 79.6987 13.1409C79.6987 13.5511 79.8608 13.8792 80.1851 14.1253C80.5093 14.3714 80.953 14.4944 81.5161 14.4944C82.0452 14.4944 82.523 14.3714 82.9496 14.1253C83.3933 13.8628 83.7176 13.469 83.9224 12.9441L84.5879 14.6666C84.3319 15.5854 83.8285 16.2826 83.0776 16.7584C82.3438 17.2177 81.3711 17.4474 80.1595 17.4474Z" fill="black"/>
<path d="M107.946 3.66666C109.021 3.66666 109.977 3.87992 110.813 4.30646C111.666 4.71662 112.332 5.35643 112.809 6.22592C113.304 7.09542 113.552 8.21922 113.552 9.59729V17.2259H108.688V10.3602C108.688 9.40865 108.5 8.71959 108.125 8.29303C107.75 7.85008 107.238 7.62861 106.589 7.62861C106.128 7.62861 105.71 7.73527 105.335 7.94854C104.959 8.16181 104.669 8.48991 104.465 8.93287C104.26 9.35941 104.157 9.9172 104.157 10.6062V17.2259H99.2938V10.3602C99.2938 9.40865 99.1061 8.71959 98.7306 8.29303C98.3723 7.85008 97.8603 7.62861 97.1947 7.62861C96.7169 7.62861 96.2903 7.73527 95.9148 7.94854C95.5565 8.16181 95.2664 8.48991 95.0445 8.93287C94.8398 9.35941 94.7374 9.9172 94.7374 10.6062V17.2259H89.8738V3.8881H94.507V7.60399L93.5855 6.54585C94.0974 5.59432 94.7971 4.88068 95.6845 4.40492C96.5719 3.91275 97.5616 3.66666 98.6538 3.66666C99.8996 3.66666 100.992 3.97837 101.93 4.60178C102.886 5.2088 103.526 6.16032 103.85 7.45637L102.263 7.13643C102.758 6.05366 103.5 5.2088 104.49 4.60178C105.497 3.97837 106.649 3.66666 107.946 3.66666Z" fill="black"/>
<path d="M122.089 17.4474C120.45 17.4474 119.017 17.1521 117.788 16.5615C116.577 15.9545 115.629 15.1342 114.947 14.1007C114.281 13.0507 113.948 11.8613 113.948 10.5324C113.948 9.20356 114.273 8.02236 114.921 6.9888C115.587 5.93884 116.5 5.12676 117.66 4.55255C118.821 3.96195 120.126 3.66666 121.577 3.66666C122.942 3.66666 124.188 3.93735 125.314 4.47874C126.44 5.00371 127.336 5.78297 128.002 6.81653C128.667 7.8501 129 9.10515 129 10.5817C129 10.7457 128.991 10.9344 128.974 11.1476C128.957 11.3609 128.94 11.5578 128.923 11.7382H117.942V9.27739H126.338L124.495 9.96643C124.512 9.35942 124.392 8.83444 124.136 8.39149C123.898 7.94853 123.556 7.60401 123.113 7.35794C122.686 7.11185 122.182 6.9888 121.602 6.9888C121.022 6.9888 120.51 7.11185 120.066 7.35794C119.64 7.60401 119.307 7.95674 119.068 8.41611C118.829 8.85906 118.71 9.38403 118.71 9.99104V10.7047C118.71 11.3609 118.846 11.9269 119.119 12.4027C119.409 12.8784 119.819 13.2476 120.348 13.51C120.877 13.7561 121.508 13.8792 122.242 13.8792C122.925 13.8792 123.505 13.7889 123.983 13.6085C124.478 13.4116 124.964 13.1163 125.442 12.7226L128.002 15.2819C127.336 15.9873 126.517 16.5287 125.544 16.906C124.572 17.267 123.42 17.4474 122.089 17.4474H122.089Z" fill="black"/>
</g>
<defs>
<clipPath id="clip0_7133_1088">
<rect width="129" height="22" fill="white"/>
</clipPath>
</defs>
</svg>
