<svg width="48" height="45" viewBox="0 0 48 45" fill="none" xmlns="http://www.w3.org/2000/svg">
<g clip-path="url(#clip0_7133_1098)">
<path fill-rule="evenodd" clip-rule="evenodd" d="M26.4726 9.01788C24.8082 9.01788 23.1601 9.35154 21.6223 9.99987C20.0846 10.6482 18.6874 11.5984 17.5105 12.7963C16.3335 13.9943 15.4 15.4164 14.763 16.9816C14.1261 18.5467 13.7983 20.2243 13.7983 21.9184C13.7983 23.6125 14.1261 25.29 14.763 26.8552C15.4 28.4204 16.3335 29.8425 17.5105 31.0404C18.6874 32.2384 20.0846 33.1886 21.6223 33.8369C23.1601 34.4852 24.8082 34.8189 26.4726 34.8189C28.137 34.8189 29.7851 34.4852 31.3229 33.8369C32.8606 33.1886 34.2578 32.2384 35.4347 31.0404C36.6117 29.8425 37.5452 28.4204 38.1822 26.8552C38.8191 25.29 39.147 23.6125 39.147 21.9184C39.1472 20.3349 38.861 18.7649 38.3027 17.2869L26.3734 29.427L17.8803 20.7825C16.7441 19.6271 16.7441 17.7146 17.8803 16.5592C19.0149 15.4068 20.8841 15.4068 22.0185 16.5592H22.0227L26.3734 20.9907L34.9156 12.2961C32.5926 10.1846 29.5871 9.01766 26.4727 9.01788H26.4726ZM36.4928 14.0179L26.3734 24.3159L20.3901 18.2258C20.1393 17.9711 19.7666 17.9733 19.5148 18.2258C19.2624 18.4825 19.2624 18.8602 19.5148 19.1168L26.3774 26.0988L37.2137 15.0691C36.9906 14.7068 36.75 14.3559 36.4928 14.0179Z" fill="#FFDE25"/>
<path fill-rule="evenodd" clip-rule="evenodd" d="M26.1116 0.00281432C23.8857 0.0392362 21.6439 0.429437 19.4606 1.19489C10.7273 4.25675 4.87171 12.6741 4.93824 22.0756C4.94048 22.419 5.00922 22.7586 5.14055 23.0751C5.27186 23.3914 5.46316 23.6784 5.70354 23.9195C5.94392 24.1605 6.22863 24.351 6.54139 24.4799C6.85414 24.6089 7.18885 24.6738 7.52625 24.671C7.86343 24.6683 8.19685 24.598 8.50734 24.4642C8.81783 24.3303 9.09935 24.1356 9.3359 23.8909C9.5724 23.6463 9.75922 23.3566 9.88574 23.0385C10.0123 22.7204 10.0759 22.38 10.0732 22.0368C10.0224 14.8593 14.4648 8.47421 21.1321 6.13668C26.8939 4.11663 33.1724 5.52605 37.5496 9.61491L41.1794 5.9203C37.0766 2.01372 31.6516 -0.0878279 26.1116 0.00281432ZM42.7848 7.61554L39.1429 11.3214C39.2524 11.4571 39.361 11.5939 39.4668 11.7337C39.6164 11.9314 39.7602 12.1322 39.9 12.3348L43.5709 8.5984C43.5582 8.5815 43.5465 8.56421 43.5338 8.54737C43.2922 8.22797 43.041 7.9183 42.7847 7.61554H42.7848ZM44.8955 10.5774L41.1163 14.424C43.7402 19.7264 43.4362 26.1355 40.1005 31.206C36.1769 37.1699 28.9756 39.9092 22.1709 38.0257C21.8454 37.9352 21.5056 37.9109 21.1709 37.9543C20.8361 37.9976 20.5131 38.1076 20.2201 38.2782C19.9272 38.4487 19.6702 38.6763 19.4639 38.9481C19.2575 39.2198 19.1058 39.5303 19.0174 39.8618C18.8391 40.5303 18.9289 41.2436 19.2672 41.8448C19.6055 42.4459 20.1645 42.8857 20.8213 43.0675C29.7344 45.5346 39.2247 41.9257 44.3641 34.1137C49.0513 26.989 49.1832 17.7916 44.8955 10.5774Z" fill="#F60C87"/>
<path fill-rule="evenodd" clip-rule="evenodd" d="M9.00002 27.782C4.59967 27.782 1 31.483 1 36.0119C1 40.5407 4.59967 44.2454 9.00002 44.2454C13.4003 44.2454 17 40.5407 17 36.0119C17 31.483 13.4003 27.782 9.00002 27.782ZM9.00002 30.8196C11.8037 30.8196 14.0449 33.1263 14.0449 36.0119C14.0449 38.8974 11.8037 41.2041 9.00002 41.2041C6.19628 41.2041 3.95502 38.8974 3.95502 36.0119C3.95502 33.1263 6.19628 30.8196 9.00002 30.8196Z" fill="#F60C87"/>
<path d="M44.349 5.09461C43.8825 5.09856 43.436 5.28757 43.1059 5.62308L26.374 22.6536L21.2047 17.3921C20.5115 16.688 19.3891 16.688 18.6959 17.3921C18.0016 18.0981 18.0016 19.2435 18.6959 19.9495L26.374 27.7647L45.6148 8.18056C46.3091 7.4745 46.3091 6.32908 45.6148 5.62308C45.2791 5.28191 44.8233 5.09163 44.349 5.09461Z" fill="#12121F"/>
</g>
<defs>
<clipPath id="clip0_7133_1098">
<rect width="48" height="45" fill="white"/>
</clipPath>
</defs>
</svg>
