<svg width="20" height="20" viewBox="0 0 20 20" fill="none" xmlns="http://www.w3.org/2000/svg">
<g clip-path="url(#clip0_11_15)">
<path d="M10.3337 7.5C10.5571 7.5 10.7713 7.4122 10.9293 7.25592C11.0873 7.09964 11.176 6.88768 11.176 6.66667V4.16667C11.176 3.50363 11.4422 2.86774 11.9161 2.3989C12.39 1.93006 13.0327 1.66667 13.7029 1.66667H15.7885C16.4587 1.66667 17.1014 1.93006 17.5753 2.3989C18.0492 2.86774 18.3154 3.50363 18.3154 4.16667V15.8333C18.3154 16.4964 18.0492 17.1323 17.5753 17.6011C17.1014 18.0699 16.4587 18.3333 15.7885 18.3333H13.7029C13.0327 18.3333 12.39 18.0699 11.9161 17.6011C11.4422 17.1323 11.176 16.4964 11.176 15.8333V13.3333C11.176 13.1123 11.0873 12.9004 10.9293 12.7441C10.7713 12.5878 10.5571 12.5 10.3337 12.5C10.1103 12.5 9.89607 12.5878 9.7381 12.7441C9.58014 12.9004 9.4914 13.1123 9.4914 13.3333V15.8333C9.49274 16.938 9.93688 17.997 10.7264 18.7781C11.5159 19.5593 12.5864 19.9987 13.7029 20H15.7885C16.905 19.9987 17.9755 19.5593 18.765 18.7782C19.5545 17.997 19.9987 16.938 20 15.8333V4.16667C19.9987 3.06201 19.5545 2.00297 18.765 1.22185C17.9755 0.440734 16.905 0.00132398 15.7885 1.8233e-07L13.7029 0C12.5864 0.0013236 11.5159 0.440733 10.7264 1.22185C9.93688 2.00297 9.49274 3.06201 9.4914 4.16667V6.66667C9.4914 6.88768 9.58014 7.09964 9.7381 7.25592C9.89607 7.4122 10.1103 7.5 10.3337 7.5Z" fill="white"/>
<path d="M0.739006 11.7675L4.60182 15.5892C4.67952 15.6688 4.77246 15.7322 4.87523 15.7759C4.97799 15.8196 5.08852 15.8426 5.20036 15.8435C5.3122 15.8445 5.42311 15.8234 5.52663 15.7815C5.63014 15.7396 5.72419 15.6777 5.80328 15.5995C5.88236 15.5213 5.94491 15.4282 5.98726 15.3258C6.02961 15.2234 6.05092 15.1136 6.04995 15.003C6.04898 14.8923 6.02574 14.783 5.9816 14.6813C5.93745 14.5797 5.87328 14.4877 5.79284 14.4108L2.20209 10.8583L14.9462 10.8333C15.1696 10.8333 15.3838 10.7455 15.5418 10.5893C15.6997 10.433 15.7885 10.221 15.7885 10C15.7885 9.77899 15.6997 9.56703 15.5418 9.41075C15.3838 9.25447 15.1696 9.16667 14.9462 9.16667L2.15324 9.19167L5.79452 5.58917C5.87497 5.51229 5.93914 5.42034 5.98328 5.31867C6.02743 5.217 6.05066 5.10765 6.05164 4.997C6.05261 4.88635 6.0313 4.77662 5.98894 4.67421C5.94659 4.57179 5.88405 4.47875 5.80496 4.4005C5.72588 4.32226 5.63183 4.26038 5.52831 4.21848C5.4248 4.17658 5.31388 4.1555 5.20204 4.15646C5.0902 4.15742 4.97967 4.18041 4.87691 4.22408C4.77415 4.26776 4.6812 4.33124 4.6035 4.41083L0.74069 8.2325C0.266743 8.7011 0.000316957 9.33674 2.79234e-07 9.99965C-0.000314492 10.6626 0.265505 11.2985 0.739006 11.7675Z" fill="white"/>
</g>
<defs>
<clipPath id="clip0_11_15">
<rect width="20" height="20" fill="white"/>
</clipPath>
</defs>
</svg>
