<svg width="20" height="20" viewBox="0 0 20 20" fill="none" xmlns="http://www.w3.org/2000/svg">
<g clip-path="url(#clip0_7133_1081)">
<path d="M19.3825 13.5L17.2158 5.69084C16.7532 4.02036 15.745 2.55263 14.3519 1.52125C12.9588 0.489872 11.2607 -0.0458855 9.52788 -0.000752424C7.7951 0.0443806 6.1272 0.66781 4.78964 1.77031C3.45208 2.87282 2.52173 4.39104 2.14666 6.08334L0.470824 13.625C0.389735 13.9904 0.391712 14.3693 0.476612 14.7338C0.561511 15.0983 0.727165 15.4391 0.961353 15.731C1.19554 16.023 1.49228 16.2586 1.82969 16.4205C2.1671 16.5825 2.53657 16.6666 2.91082 16.6667H5.91666C6.10792 17.6086 6.61893 18.4554 7.36311 19.0637C8.10729 19.6719 9.03886 20.0042 9.99999 20.0042C10.9611 20.0042 11.8927 19.6719 12.6369 19.0637C13.381 18.4554 13.8921 17.6086 14.0833 16.6667H16.975C17.3601 16.6665 17.7399 16.5774 18.0849 16.4062C18.4299 16.2351 18.7306 15.9866 18.9638 15.6801C19.1969 15.3735 19.356 15.0173 19.4288 14.6392C19.5016 14.261 19.486 13.8712 19.3833 13.5H19.3825ZM9.99999 18.3333C9.48477 18.3312 8.9828 18.1699 8.56274 17.8716C8.14268 17.5733 7.82506 17.1524 7.65332 16.6667H12.3467C12.1749 17.1524 11.8573 17.5733 11.4372 17.8716C11.0172 18.1699 10.5152 18.3312 9.99999 18.3333ZM17.6375 14.6708C17.5597 14.7739 17.459 14.8574 17.3432 14.9145C17.2274 14.9717 17.0999 15.001 16.9708 15H2.91082C2.78604 15 2.66286 14.9719 2.55036 14.918C2.43787 14.864 2.33894 14.7854 2.26087 14.688C2.1828 14.5907 2.12759 14.4771 2.09931 14.3555C2.07104 14.234 2.07041 14.1077 2.09749 13.9858L3.77332 6.44418C4.06862 5.11602 4.79941 3.92468 5.84954 3.05955C6.89966 2.19442 8.20884 1.70515 9.56897 1.66952C10.9291 1.63389 12.2621 2.05394 13.3561 2.8629C14.4501 3.67186 15.2422 4.8233 15.6067 6.13418L17.7733 13.9433C17.8087 14.0668 17.8148 14.1969 17.7913 14.3231C17.7677 14.4494 17.715 14.5684 17.6375 14.6708Z" fill="#121317"/>
<path d="M19.25 4.25C19.25 6.22648 17.7527 7.75 16 7.75C14.2473 7.75 12.75 6.22648 12.75 4.25C12.75 2.27352 14.2473 0.75 16 0.75C17.7527 0.75 19.25 2.27352 19.25 4.25Z" fill="#F60C87" stroke="white" stroke-width="1.5"/>
</g>
<defs>
<clipPath id="clip0_7133_1081">
<rect width="20" height="20" fill="white"/>
</clipPath>
</defs>
</svg>
