<svg width="20" height="23" viewBox="0 0 20 23" fill="none" xmlns="http://www.w3.org/2000/svg">
<path d="M10 7.66667C9.26725 7.66667 8.55096 7.89149 7.9417 8.3127C7.33244 8.73391 6.85758 9.3326 6.57717 10.033C6.29676 10.7335 6.22339 11.5043 6.36634 12.2478C6.5093 12.9914 6.86215 13.6745 7.38028 14.2106C7.89841 14.7467 8.55855 15.1118 9.27722 15.2597C9.99589 15.4076 10.7408 15.3317 11.4178 15.0415C12.0948 14.7514 12.6734 14.2601 13.0805 13.6297C13.4876 12.9993 13.7048 12.2582 13.7048 11.5C13.7048 10.4833 13.3145 9.50831 12.6197 8.78942C11.9249 8.07053 10.9826 7.66667 10 7.66667ZM10 13.4167C9.63363 13.4167 9.27548 13.3043 8.97085 13.0937C8.66622 12.883 8.42879 12.5837 8.28859 12.2335C8.14838 11.8833 8.1117 11.4979 8.18317 11.1261C8.25465 10.7543 8.43108 10.4128 8.69014 10.1447C8.94921 9.87666 9.27928 9.69412 9.63861 9.62016C9.99795 9.54621 10.3704 9.58416 10.7089 9.72923C11.0474 9.8743 11.3367 10.12 11.5402 10.4352C11.7438 10.7504 11.8524 11.1209 11.8524 11.5C11.8524 12.0083 11.6573 12.4958 11.3099 12.8553C10.9625 13.2147 10.4913 13.4167 10 13.4167Z" fill="#121317"/>
<path d="M18.6082 13.3208L18.197 13.0755C18.3821 12.0333 18.3821 10.9648 18.197 9.92258L18.6082 9.67725C18.9245 9.48847 19.2017 9.2371 19.424 8.93748C19.6464 8.63785 19.8095 8.29585 19.9041 7.93099C19.9987 7.56613 20.0229 7.18557 19.9754 6.81103C19.9279 6.43648 19.8095 6.07529 19.627 5.74808C19.4446 5.42087 19.2016 5.13405 18.9121 4.90399C18.6225 4.67392 18.2919 4.50513 17.9393 4.40724C17.5867 4.30935 17.2189 4.28429 16.8569 4.33348C16.4949 4.38266 16.1458 4.50514 15.8296 4.69392L15.4174 4.94021C14.639 4.25205 13.7444 3.71857 12.7786 3.36662V2.875C12.7786 2.1125 12.4859 1.38124 11.9648 0.842068C11.4437 0.302901 10.7369 0 10 0C9.26306 0 8.5563 0.302901 8.03521 0.842068C7.51411 1.38124 7.22137 2.1125 7.22137 2.875V3.36662C6.25569 3.71983 5.36139 4.25462 4.58352 4.94404L4.1695 4.69583C3.53082 4.31458 2.77192 4.21146 2.05976 4.40916C1.3476 4.60685 0.740505 5.08917 0.372035 5.75C0.00356506 6.41083 -0.0960982 7.19605 0.09497 7.93291C0.286038 8.66977 0.752186 9.29792 1.39087 9.67917L1.8021 9.9245C1.61696 10.9667 1.61696 12.0352 1.8021 13.0774L1.39087 13.3228C0.752186 13.704 0.286038 14.3321 0.09497 15.069C-0.0960982 15.8059 0.00356506 16.5911 0.372035 17.2519C0.740505 17.9127 1.3476 18.3951 2.05976 18.5928C2.77192 18.7905 3.53082 18.6873 4.1695 18.3061L4.58167 18.0598C5.36039 18.7481 6.25531 19.2815 7.22137 19.6334V20.125C7.22137 20.8875 7.51411 21.6188 8.03521 22.1579C8.5563 22.6971 9.26306 23 10 23C10.7369 23 11.4437 22.6971 11.9648 22.1579C12.4859 21.6188 12.7786 20.8875 12.7786 20.125V19.6334C13.7443 19.2802 14.6386 18.7454 15.4165 18.056L15.8305 18.3032C16.4692 18.6845 17.2281 18.7876 17.9402 18.5899C18.6524 18.3922 19.2595 17.9099 19.628 17.249C19.9964 16.5882 20.0961 15.803 19.905 15.0661C19.714 14.3293 19.2478 13.7011 18.6091 13.3199L18.6082 13.3208ZM16.2482 9.70217C16.5619 10.8781 16.5619 12.12 16.2482 13.2959C16.1935 13.5006 16.2059 13.7183 16.2837 13.9148C16.3615 14.1113 16.5002 14.2756 16.678 14.3817L17.682 14.9816C17.8949 15.1087 18.0502 15.3181 18.1139 15.5637C18.1775 15.8093 18.1443 16.071 18.0215 16.2912C17.8986 16.5114 17.6963 16.6722 17.4589 16.738C17.2216 16.8039 16.9686 16.7695 16.7558 16.6424L15.7499 16.0406C15.572 15.934 15.3648 15.8916 15.1611 15.9202C14.9573 15.9489 14.7686 16.0468 14.6246 16.1987C13.8002 17.0695 12.7616 17.6908 11.6209 17.9956C11.4218 18.0485 11.2453 18.1685 11.1194 18.3367C10.9935 18.5048 10.9252 18.7115 10.9253 18.9242V20.125C10.9253 20.3792 10.8277 20.6229 10.654 20.8026C10.4803 20.9824 10.2447 21.0833 9.99907 21.0833C9.75343 21.0833 9.51784 20.9824 9.34414 20.8026C9.17045 20.6229 9.07286 20.3792 9.07286 20.125V18.9252C9.07296 18.7125 9.00467 18.5058 8.87873 18.3376C8.7528 18.1695 8.57638 18.0495 8.37728 17.9965C7.23651 17.6905 6.19821 17.0679 5.3745 16.1958C5.2305 16.044 5.04175 15.946 4.838 15.9174C4.63425 15.8887 4.42709 15.9311 4.24916 16.0377L3.24514 16.6386C3.13977 16.7025 3.02321 16.7442 2.90219 16.7613C2.78117 16.7785 2.65807 16.7706 2.53997 16.7383C2.42188 16.706 2.31113 16.6499 2.2141 16.5731C2.11707 16.4963 2.03567 16.4005 1.9746 16.291C1.91352 16.1816 1.87398 16.0607 1.85823 15.9354C1.84249 15.81 1.85086 15.6827 1.88286 15.5608C1.91487 15.4388 1.96987 15.3246 2.04471 15.2247C2.11955 15.1248 2.21274 15.0412 2.31893 14.9787L3.32294 14.3788C3.50073 14.2727 3.63941 14.1085 3.71719 13.9119C3.79498 13.7154 3.80747 13.4977 3.75271 13.293C3.43905 12.1171 3.43905 10.8752 3.75271 9.69929C3.80649 9.49505 3.7934 9.27814 3.71549 9.0824C3.63757 8.88667 3.49922 8.72314 3.32202 8.61733L2.318 8.01742C2.10515 7.89033 1.94981 7.68097 1.88615 7.43538C1.82249 7.18979 1.85572 6.92809 1.97855 6.70785C2.10137 6.48762 2.30372 6.32689 2.54108 6.26102C2.77844 6.19515 3.03136 6.22954 3.24422 6.35662L4.25008 6.95846C4.42752 7.06533 4.63426 7.10816 4.83779 7.08023C5.04132 7.0523 5.23011 6.95519 5.3745 6.80417C6.19891 5.93337 7.23751 5.31206 8.3782 5.00729C8.57793 4.95416 8.7548 4.8336 8.8808 4.66469C9.0068 4.49578 9.07472 4.2882 9.07379 4.07483V2.875C9.07379 2.62083 9.17137 2.37708 9.34507 2.19736C9.51877 2.01763 9.75435 1.91667 10 1.91667C10.2456 1.91667 10.4812 2.01763 10.6549 2.19736C10.8286 2.37708 10.9262 2.62083 10.9262 2.875V4.07483C10.9261 4.28754 10.9944 4.49424 11.1203 4.66237C11.2463 4.8305 11.4227 4.95049 11.6218 5.00346C12.7629 5.30931 13.8015 5.93197 14.6255 6.80417C14.7695 6.95603 14.9583 7.054 15.162 7.08263C15.3658 7.11126 15.5729 7.06892 15.7508 6.96229L16.7549 6.36142C16.8602 6.2975 16.9768 6.25578 17.0978 6.23866C17.2188 6.22153 17.3419 6.22935 17.46 6.26166C17.5781 6.29396 17.6889 6.35011 17.7859 6.42688C17.8829 6.50365 17.9643 6.59953 18.0254 6.70898C18.0865 6.81843 18.126 6.9393 18.1418 7.06463C18.1575 7.18996 18.1491 7.31728 18.1171 7.43925C18.0851 7.56122 18.0301 7.67543 17.9553 7.77532C17.8805 7.8752 17.7873 7.95878 17.6811 8.02125L16.6771 8.62117C16.5002 8.72726 16.3622 8.89091 16.2847 9.08662C16.2071 9.28233 16.1943 9.4991 16.2482 9.70312V9.70217Z" fill="#121317"/>
</svg>
