<svg width="20" height="20" viewBox="0 0 20 20" fill="none" xmlns="http://www.w3.org/2000/svg">
<path d="M10 13.0081C9.34073 13.0081 8.69626 12.8174 8.1481 12.4601C7.59994 12.1027 7.17269 11.5948 6.9204 11.0006C6.66811 10.4064 6.6021 9.75249 6.73072 9.12166C6.85933 8.49083 7.1768 7.91137 7.64298 7.45657C8.10915 7.00176 8.7031 6.69203 9.3497 6.56655C9.9963 6.44107 10.6665 6.50547 11.2756 6.75161C11.8847 6.99775 12.4053 7.41457 12.7716 7.94937C13.1378 8.48416 13.3333 9.11291 13.3333 9.7561C13.3333 10.6186 12.9821 11.4458 12.357 12.0556C11.7319 12.6655 10.8841 13.0081 10 13.0081ZM10 8.13008C9.67036 8.13008 9.34813 8.22545 9.07405 8.40412C8.79997 8.58279 8.58635 8.83674 8.4602 9.13385C8.33405 9.43097 8.30105 9.7579 8.36536 10.0733C8.42967 10.3887 8.5884 10.6785 8.82149 10.9059C9.05458 11.1333 9.35155 11.2881 9.67485 11.3509C9.99815 11.4136 10.3333 11.3814 10.6378 11.2583C10.9423 11.1353 11.2026 10.9269 11.3858 10.6595C11.5689 10.3921 11.6667 10.0777 11.6667 9.7561C11.6667 9.32485 11.4911 8.91127 11.1785 8.60633C10.866 8.3014 10.442 8.13008 10 8.13008ZM15 18.6992C15 17.4055 14.4732 16.1647 13.5355 15.2499C12.5979 14.3351 11.3261 13.8211 10 13.8211C8.67392 13.8211 7.40215 14.3351 6.46447 15.2499C5.52678 16.1647 5 17.4055 5 18.6992C5 18.9148 5.0878 19.1216 5.24408 19.2741C5.40036 19.4265 5.61232 19.5122 5.83333 19.5122C6.05435 19.5122 6.26631 19.4265 6.42259 19.2741C6.57887 19.1216 6.66667 18.9148 6.66667 18.6992C6.66667 17.8367 7.01786 17.0095 7.64298 16.3997C8.2681 15.7898 9.11594 15.4472 10 15.4472C10.8841 15.4472 11.7319 15.7898 12.357 16.3997C12.9821 17.0095 13.3333 17.8367 13.3333 18.6992C13.3333 18.9148 13.4211 19.1216 13.5774 19.2741C13.7337 19.4265 13.9457 19.5122 14.1667 19.5122C14.3877 19.5122 14.5996 19.4265 14.7559 19.2741C14.9122 19.1216 15 18.9148 15 18.6992ZM15 6.50407C14.3407 6.50407 13.6963 6.31334 13.1481 5.956C12.5999 5.59866 12.1727 5.09076 11.9204 4.49653C11.6681 3.9023 11.6021 3.24843 11.7307 2.61759C11.8593 1.98676 12.1768 1.4073 12.643 0.9525C13.1092 0.497695 13.7031 0.187969 14.3497 0.0624884C14.9963 -0.062992 15.6665 0.00140901 16.2756 0.247548C16.8847 0.493686 17.4053 0.910508 17.7716 1.4453C18.1378 1.9801 18.3333 2.60884 18.3333 3.25203C18.3333 4.11453 17.9821 4.94169 17.357 5.55157C16.7319 6.16144 15.8841 6.50407 15 6.50407ZM15 1.62602C14.6704 1.62602 14.3481 1.72138 14.074 1.90005C13.8 2.07872 13.5863 2.33267 13.4602 2.62978C13.3341 2.9269 13.301 3.25384 13.3654 3.56925C13.4297 3.88467 13.5884 4.1744 13.8215 4.4018C14.0546 4.6292 14.3515 4.78407 14.6749 4.84681C14.9982 4.90955 15.3333 4.87735 15.6378 4.75428C15.9423 4.63121 16.2026 4.4228 16.3858 4.1554C16.5689 3.888 16.6667 3.57363 16.6667 3.25203C16.6667 2.82079 16.4911 2.4072 16.1785 2.10227C15.866 1.79733 15.442 1.62602 15 1.62602ZM20 12.1951C19.9987 10.9018 19.4715 9.66178 18.5341 8.74725C17.5967 7.83272 16.3257 7.31837 15 7.31708C14.779 7.31708 14.567 7.40273 14.4107 7.5552C14.2545 7.70767 14.1667 7.91446 14.1667 8.13008C14.1667 8.34571 14.2545 8.5525 14.4107 8.70497C14.567 8.85744 14.779 8.94309 15 8.94309C15.8841 8.94309 16.7319 9.28572 17.357 9.89559C17.9821 10.5055 18.3333 11.3326 18.3333 12.1951C18.3333 12.4107 18.4211 12.6175 18.5774 12.77C18.7337 12.9225 18.9457 13.0081 19.1667 13.0081C19.3877 13.0081 19.5996 12.9225 19.7559 12.77C19.9122 12.6175 20 12.4107 20 12.1951ZM5 6.50407C4.34073 6.50407 3.69626 6.31334 3.1481 5.956C2.59994 5.59866 2.17269 5.09076 1.9204 4.49653C1.66811 3.9023 1.6021 3.24843 1.73072 2.61759C1.85933 1.98676 2.1768 1.4073 2.64298 0.9525C3.10915 0.497695 3.7031 0.187969 4.3497 0.0624884C4.9963 -0.062992 5.66652 0.00140901 6.27561 0.247548C6.8847 0.493686 7.40529 0.910508 7.77157 1.4453C8.13784 1.9801 8.33333 2.60884 8.33333 3.25203C8.33333 4.11453 7.98214 4.94169 7.35702 5.55157C6.7319 6.16144 5.88406 6.50407 5 6.50407ZM5 1.62602C4.67036 1.62602 4.34813 1.72138 4.07405 1.90005C3.79997 2.07872 3.58635 2.33267 3.4602 2.62978C3.33405 2.9269 3.30105 3.25384 3.36536 3.56925C3.42967 3.88467 3.5884 4.1744 3.82149 4.4018C4.05458 4.6292 4.35155 4.78407 4.67485 4.84681C4.99815 4.90955 5.33326 4.87735 5.63781 4.75428C5.94235 4.63121 6.20265 4.4228 6.38578 4.1554C6.56892 3.888 6.66667 3.57363 6.66667 3.25203C6.66667 2.82079 6.49107 2.4072 6.17851 2.10227C5.86595 1.79733 5.44203 1.62602 5 1.62602ZM1.66667 12.1951C1.66667 11.3326 2.01786 10.5055 2.64298 9.89559C3.2681 9.28572 4.11595 8.94309 5 8.94309C5.22101 8.94309 5.43298 8.85744 5.58926 8.70497C5.74554 8.5525 5.83333 8.34571 5.83333 8.13008C5.83333 7.91446 5.74554 7.70767 5.58926 7.5552C5.43298 7.40273 5.22101 7.31708 5 7.31708C3.67432 7.31837 2.40332 7.83272 1.46593 8.74725C0.528533 9.66178 0.00132369 10.9018 0 12.1951C0 12.4107 0.0877974 12.6175 0.244078 12.77C0.400358 12.9225 0.61232 13.0081 0.833333 13.0081C1.05435 13.0081 1.26631 12.9225 1.42259 12.77C1.57887 12.6175 1.66667 12.4107 1.66667 12.1951Z" fill="white"/>
</svg>
